<?xml version="1.0" encoding="UTF-8" standalone="no"?>
<svg
   xmlns:dc="http://purl.org/dc/elements/1.1/"
   xmlns:cc="http://creativecommons.org/ns#"
   xmlns:rdf="http://www.w3.org/1999/02/22-rdf-syntax-ns#"
   xmlns:svg="http://www.w3.org/2000/svg"
   xmlns="http://www.w3.org/2000/svg"
   id="svg6"
   version="1.1"
   viewBox="0 0 24 24"
   height="24"
   width="24">
  <metadata
     id="metadata12">
    <rdf:RDF>
      <cc:Work
         rdf:about="">
        <dc:format>image/svg+xml</dc:format>
        <dc:type
           rdf:resource="http://purl.org/dc/dcmitype/StillImage" />
        <dc:title></dc:title>
      </cc:Work>
    </rdf:RDF>
  </metadata>
  <defs
     id="defs10" />
  <path
     id="path2"
     fill="none"
     d="M0 0h24v24H0z" />
  <g
     style="display:inline"
     id="layer1">
    <g
       transform="scale(0.78813559)"
       id="g28">
      <path
         d="M 19,5 V 19 H 5 V 5 H 19 M 19,3 H 5 C 3.9,3 3,3.9 3,5 v 14 c 0,1.1 0.9,2 2,2 h 14 c 1.1,0 2,-0.9 2,-2 V 5 C 21,3.9 20.1,3 19,3 Z"
         id="path14" />
      <path
         style="fill:none"
         d="M 0,0 H 24 V 24 H 0 Z"
         id="path16" />
    </g>
  </g>
  <g
     id="layer2">
    <path
       style="stroke-width:0.80790961"
       id="path4"
       d="M 19.384181,6.4576271 H 8.0734463 c -0.8967797,0 -1.6158192,0.7271186 -1.6158192,1.6158192 V 19.384181 C 6.4576271,20.272882 7.1766666,21 8.0734463,21 H 19.384181 C 20.28096,21 21,20.272882 21,19.384181 V 8.0734463 C 21,7.1847457 20.28096,6.4576271 19.384181,6.4576271 Z m -7.271186,11.3107349 -4.0395487,-4.039548 1.1391526,-1.139153 2.9003961,2.892316 6.132033,-6.1320335 1.139153,1.1472315 z" />
    <path
       id="path38"
       d="m 16.566887,12.172258 v -1.131414 l 0.838936,-0.838647 0.838936,-0.8386473 0.510218,0.5082831 c 0.28062,0.2795562 0.531618,0.5376422 0.557773,0.5735252 l 0.04755,0.06524 -1.396709,1.396536 -1.396708,1.396535 z"
       style="fill:#ffffff;stroke-width:0.02542373" />
    <path
       id="path40"
       d="m 13.795805,13.812206 1.156675,-1.156893 0.0066,1.122187 c 0.0048,0.807336 -0.0015,1.131924 -0.02218,1.156893 -0.02355,0.02838 -0.235696,0.03471 -1.163298,0.03471 H 12.63913 Z"
       style="fill:#ffffff;stroke-width:0.02542373" />
    <path
       id="path44"
       d="m 10.096626,15.731889 -2.0082757,-2.008396 0.5590336,-0.559468 0.5590337,-0.559467 1.4366734,1.436508 c 0.79017,0.790079 1.448059,1.436508 1.461975,1.436508 0.01392,0 1.401053,-1.375717 3.082528,-3.057148 l 3.057227,-3.0571482 0.565641,0.5656414 0.565642,0.5656418 -3.622796,3.622862 c -1.992537,1.992574 -3.628558,3.622862 -3.635601,3.622862 -0.007,0 -0.91653,-0.903778 -2.021081,-2.008396 z"
       style="fill:#ffffff;stroke-width:0.02542373" />
  </g>
</svg>
