<svg version="1.1" xmlns="http://www.w3.org/2000/svg" xmlns:xlink="http://www.w3.org/1999/xlink" x="0px" y="0px" width="24px" height="24px" viewBox="0 0 24 24">
<path d="M19.7,6.8h-2.8V4.3c0-0.9-0.7-1.6-1.6-1.6h-11c-0.9,0-1.6,0.7-1.6,1.6v11c0,0.9,0.7,1.6,1.6,1.6h2.5v2.8 c0,0.9,0.7,1.6,1.6,1.6h11.3c0.9,0,1.6-0.7,1.6-1.6V8.4C21.3,7.5,20.6,6.8,19.7,6.8z M6.8,8.4v6.9H4.3v-11h11v2.5H8.4 C7.5,6.8,6.8,7.5,6.8,8.4z M16.9,13.7l-1.6,1.6l-0.1,0.1l-1.6,1.6l-1.2,1.2l-1.2-1.2L8.4,14l1.1-1.1l2.4,2.4l0.5,0.5l2.9-2.9 l1.6-1.6l1.7-1.7l1.1,1.2L16.9,13.7z"/>
</svg>
