<svg xmlns="http://www.w3.org/2000/svg" xmlns:xlink="http://www.w3.org/1999/xlink" x="0px" y="0px" width="24px" height="24px" viewBox="0 0 24 24">
<path d="M14.1,10c1.8,1.8,1.9,4.6,0.3,6.5c-0.2,0.3-0.1,0.1-3,3c-1.9,1.9-5.1,1.9-7,0c-1.9-1.9-1.9-5,0-6.9c1.2-1.1,1.8-1.8,2.3-2.2
	c0.3-0.3,0.7-0.1,0.7,0.3c0,0.4,0.1,0.9,0.2,1.3c0,0.1,0,0.3-0.1,0.4L5.8,14c-1.2,1.1-1.2,3,0,4.2c1.2,1.1,3.1,1.2,4.2,0l2.7-2.6
	c1.2-1.1,1.2-3,0-4.2c-0.2-0.2-0.5-0.4-0.8-0.6c-0.2-0.1-0.3-0.3-0.2-0.4c0-0.4,0.2-0.8,0.5-1.1l0.2-0.2C12.4,9,12.6,9,12.8,9.1
	C13.3,9.3,13.7,9.6,14.1,10L14.1,10z M19.6,4.5c-1.9-1.9-5.1-1.9-7,0c-2.9,2.9-2.8,2.7-3,3C8,9.4,8.1,12.2,9.9,14
	c0.4,0.4,0.8,0.7,1.3,0.9c0.2,0.1,0.4,0,0.5-0.1l0.2-0.2c0.3-0.3,0.5-0.7,0.5-1.1c0-0.2-0.1-0.4-0.2-0.4c-0.3-0.1-0.6-0.3-0.8-0.6
	c-1.2-1.1-1.2-3,0-4.2L14,5.9c1.2-1.2,3.1-1.1,4.2,0c1.2,1.2,1.2,3,0,4.2l-1.6,1.6c-0.1,0.1-0.1,0.3-0.1,0.4
	c0.1,0.4,0.2,0.9,0.2,1.3c0,0.4,0.5,0.5,0.7,0.3c0.4-0.4,1.1-1.1,2.3-2.2C21.6,9.5,21.6,6.4,19.6,4.5L19.6,4.5z"/>
</svg>
