<?xml version="1.0"?>
<svg xmlns="http://www.w3.org/2000/svg" viewBox="0 0 24 24" enable-background="new 0 0 24 24">
    <path d="M 5 2 C 3.9 2 3 2.9 3 4 L 3 20 C 3 21.1 3.9 22 5 22 L 13 22 C 14.1 22 15 21.1 15 20 L 15 17.90625 C 14.3 17.80625 13.6 17.4875 13 17.1875 L 13 20 L 5 20 L 5 4 L 13 4 L 13 6.8125 C 13.6 6.4125 14.3 6.19375 15 6.09375 L 15 4 C 15 2.9 14.1 2 13 2 L 5 2 z M 16 7 C 13.2 7 11 9.2 11 12 C 11 14.8 13.2 17 16 17 C 18.8 17 21 14.8 21 12 C 21 9.2 18.8 7 16 7 z M 13 11 L 19 11 L 19 13 L 13 13 L 13 11 z"/>
</svg>
